<svg width="45" height="42" viewBox="0 0 45 42" fill="none" xmlns="http://www.w3.org/2000/svg">
<ellipse cx="35.381" cy="10.6793" rx="1.08045" ry="2.8813" fill="white"/>
<ellipse cx="1.08045" cy="2.8813" rx="1.08045" ry="2.8813" transform="matrix(-1 0 0 1 12.1072 7.79797)" fill="white"/>
<path d="M38.2729 17.5699C39.9386 16.7896 43.5851 14.7066 44.8457 12.6177C44.5755 14.0133 42.9008 17.1377 39.8035 20.8114L34.4463 27.0692C33.0198 28.9618 30.2347 32.8512 29.852 34.1129C29.8357 34.1859 29.8215 34.2542 29.8093 34.3175C29.8136 34.2603 29.8281 34.1917 29.852 34.1129C30.156 32.7485 31.1796 29.7358 33.2308 27.0692L35.4367 23.4676L36.6522 21.1715L38.2729 17.5699Z" fill="white"/>
<path d="M6.75983 17.5699C5.09412 16.7896 1.44759 14.7066 0.187059 12.6177C0.457173 14.0133 2.13188 17.1377 5.22918 20.8114L10.5864 27.0692C12.0129 28.9618 14.798 32.8512 15.1807 34.1129C15.197 34.1859 15.2112 34.2542 15.2234 34.3175C15.2192 34.2603 15.2046 34.1917 15.1807 34.1129C14.8767 32.7485 13.8531 29.7358 11.8019 27.0692L9.59602 23.4676L8.38051 21.1715L6.75983 17.5699Z" fill="white"/>
<path d="M33.9097 19.0531L30.3082 19.8635C30.4523 22.7808 29.3478 25.9412 28.7776 27.1568C31.6948 25.0318 33.4145 20.8689 33.9097 19.0531Z" fill="white"/>
<path d="M11.1713 19.0531L14.7728 19.8635C14.6288 22.7808 15.7332 25.9412 16.3035 27.1568C13.3862 25.0318 11.6665 20.8689 11.1713 19.0531Z" fill="white"/>
<path d="M18.5061 34.5868C18.1459 32.4258 16.5552 31.4653 15.8049 31.2552C16.4892 32.0116 17.0805 35.5922 17.2906 37.288C17.8308 40.2413 20.9671 41.0997 22.4677 41.1597C26.3934 40.7996 27.5849 38.4285 27.6899 37.288C27.834 34.9109 28.7404 32.3057 29.1756 31.3003C27.3388 31.8765 26.5795 33.7314 26.4294 34.5868C26.5014 38.9087 23.8183 40.3193 22.4677 40.4844C18.9112 39.3139 18.9563 37.288 18.5061 34.5868Z" fill="white"/>
<path d="M23.908 20.807H21.0718L21.0268 30.4864C21.0268 32.2151 20.3665 35.2285 20.0364 36.5191C21.2609 35.6907 22.1973 32.4222 22.5124 30.8916C23.0526 34.097 24.3882 35.9788 24.9885 36.5191C24.4482 35.1865 24.0431 31.942 23.908 30.4864V20.807Z" fill="white"/>
<path d="M4.10257 2.30894C5.28807 1.39352 8.22717 -0.338218 10.4961 0.0579602C12.7648 0.45416 14.5027 1.18327 15.0879 1.49839C16.5438 2.38382 20.6973 3.929 25.667 3.02866C26.6274 2.80356 28.9892 2.11041 30.7539 1.13804C32.5187 0.165618 35.0609 0.012948 36.1114 0.0579602C36.6666 0.0579602 38.3899 0.498243 40.8389 2.26304L44.0801 5.32456C44.5153 5.87976 45.2866 7.26963 44.8907 8.38609C44.3955 9.78169 43.8998 10.3671 41.4239 12.8431C40.7036 13.4584 38.7225 14.9055 36.5616 15.7699L32.96 17.39C31.8044 17.8402 29.1063 18.705 27.5577 18.5609C27.0922 18.4858 25.8918 18.1828 24.8116 17.5707C23.7311 16.9584 22.8009 16.805 22.4707 16.805C21.9754 16.8651 20.5439 17.2282 18.7793 18.2005C17.0148 19.1729 13.0926 17.8559 11.3516 17.0755L8.46976 15.7699C7.22419 15.2896 4.3099 13.8515 2.61722 11.9427C0.92487 10.0343 0.472173 9.31681 0.457067 9.19663C0.156947 8.73143 -0.299787 7.53992 0.276403 6.49546L0.951208 5.32456L4.10257 2.30894ZM13.9112 6.96909C11.7866 4.37631 9.1852 4.35722 8.14945 4.67222L5.9434 5.25816C7.11397 5.34823 9.67079 5.70787 10.5352 6.42808C9.04957 6.35304 5.61904 6.45576 3.78226 7.46421C4.84774 8.18456 7.14076 9.78661 7.7891 10.4349C8.08921 10.8551 9.4725 11.6956 12.6055 11.6957C15.7385 11.6957 17.8425 10.8551 18.503 10.4349C17.8573 10.3595 16.0355 9.56152 13.9112 6.96909ZM38.3223 4.67222C37.2865 4.35722 34.6852 4.37632 32.5606 6.96909C30.4363 9.56153 28.6145 10.3595 27.9688 10.4349C28.6293 10.8551 30.7332 11.6957 33.8662 11.6957C36.9993 11.6956 38.3825 10.8551 38.6827 10.4349C39.331 9.78661 41.624 8.18457 42.6895 7.46421C40.8527 6.45576 37.4222 6.35304 35.9366 6.42808C36.801 5.70787 39.3578 5.34823 40.5284 5.25816L38.3223 4.67222Z" fill="white"/>
</svg>
