<svg width="80" height="74" viewBox="0 0 80 74" fill="none" xmlns="http://www.w3.org/2000/svg">
<ellipse cx="62.8988" cy="18.9814" rx="1.92081" ry="5.12251" fill="#9E13E0"/>
<ellipse cx="1.92081" cy="5.12251" rx="1.92081" ry="5.12251" transform="matrix(-1 0 0 1 21.5227 13.8589)" fill="#9E13E0"/>
<path d="M68.0414 31.2296C71.0027 29.8423 77.4854 26.1391 79.7263 22.4253C79.2461 24.9065 76.2689 30.4612 70.7626 36.9924L61.2386 48.1179C58.7026 51.4827 53.7513 58.3974 53.071 60.6404C53.0421 60.7703 53.0168 60.8917 52.9951 61.0042C53.0026 60.9025 53.0285 60.7806 53.071 60.6404C53.6115 58.2147 55.4312 52.8586 59.0777 48.1179L62.9993 41.7147L65.1602 37.6327L68.0414 31.2296Z" fill="#9E13E0"/>
<path d="M12.0176 31.2296C9.0564 29.8423 2.57367 26.1391 0.332733 22.4253C0.812935 24.9065 3.79018 30.4612 9.2965 36.9924L18.8205 48.1179C21.3565 51.4827 26.3078 58.3974 26.9881 60.6404C27.017 60.7703 27.0423 60.8917 27.064 61.0042C27.0564 60.9025 27.0306 60.7806 26.9881 60.6404C26.4476 58.2147 24.6279 52.8586 20.9814 48.1179L17.0598 41.7147L14.8989 37.6327L12.0176 31.2296Z" fill="#9E13E0"/>
<path d="M60.2842 33.8691L53.8815 35.3098C54.1377 40.4964 52.1742 46.1151 51.1604 48.2762C56.3466 44.4983 59.4039 37.0974 60.2842 33.8691Z" fill="#9E13E0"/>
<path d="M19.8593 33.8691L26.262 35.3098C26.0059 40.4964 27.9694 46.1151 28.9832 48.2762C23.797 44.4983 20.7397 37.0974 19.8593 33.8691Z" fill="#9E13E0"/>
<path d="M32.8989 61.4883C32.2587 57.6464 29.4308 55.9389 28.0969 55.5654C29.3134 56.9101 30.3645 63.2759 30.738 66.2907C31.6984 71.5412 37.2741 73.0673 39.9419 73.174C46.9208 72.5337 49.0391 68.3183 49.2258 66.2907C49.4819 62.0646 51.0933 57.433 51.8669 55.6455C48.6015 56.67 47.2516 59.9676 46.9849 61.4883C47.1129 69.1721 42.3429 71.68 39.9419 71.9735C33.6192 69.8924 33.6993 66.2907 32.8989 61.4883Z" fill="#9E13E0"/>
<path d="M42.503 36.9844H37.4609L37.3809 54.1928C37.3809 57.2663 36.207 62.6236 35.6201 64.918C37.797 63.4453 39.4617 57.6345 40.022 54.9131C40.9824 60.6119 43.3567 63.9576 44.4238 64.918C43.4634 62.5489 42.7431 56.7807 42.503 54.1928V36.9844Z" fill="#9E13E0"/>
<path d="M7.29443 4.10547C9.40199 2.47801 14.626 -0.600829 18.6597 0.103516C22.693 0.807856 25.7823 2.10378 26.8228 2.66406C29.4105 4.23815 36.7948 6.98645 45.6304 5.38574C47.3377 4.98555 51.537 3.75321 54.6743 2.02441C57.8116 0.295569 62.3313 0.0234765 64.1987 0.103516C65.1862 0.103695 68.2487 0.888215 72.6021 4.02539L78.3647 9.46777C79.1384 10.4549 80.5093 12.9253 79.8052 14.9102C78.9248 17.3913 78.0446 18.4322 73.6431 22.834C72.3625 23.9279 68.8401 26.5004 64.9985 28.0371L58.5962 30.918C56.5421 31.7183 51.7459 33.255 48.9927 32.999C48.1657 32.8656 46.0307 32.3268 44.1099 31.2383C42.1895 30.1501 40.5358 29.878 39.9487 29.8779C39.0684 29.9846 36.5226 30.6305 33.3853 32.3594C30.2477 34.0876 23.2747 31.7457 20.1802 30.3584L15.0581 28.0371C12.8438 27.1834 7.66308 24.627 4.65381 21.2334C1.64655 17.842 0.83971 16.5663 0.812012 16.3516C0.278465 15.5245 -0.532636 13.4057 0.491699 11.5488L1.69189 9.46777L7.29443 4.10547ZM24.731 12.3887C20.9534 7.77883 16.3275 7.74638 14.4868 8.30664L10.5659 9.34766C12.647 9.5078 17.1925 10.1482 18.729 11.4287C16.0879 11.2953 9.98954 11.4767 6.72412 13.2695C8.61836 14.5502 12.6947 17.3992 13.8472 18.5518C14.3807 19.2988 16.8403 20.793 22.4106 20.793C27.9809 20.7929 31.7212 19.2988 32.895 18.5518C31.7479 18.4184 28.5085 16.9989 24.731 12.3887ZM68.1294 8.30664C66.2887 7.74638 61.6628 7.77877 57.8853 12.3887C54.1077 16.9989 50.8683 18.4184 49.7212 18.5518C50.895 19.2988 54.6354 20.7929 60.2056 20.793C65.7758 20.793 68.2354 19.2988 68.769 18.5518C69.9215 17.3993 73.9978 14.5503 75.8921 13.2695C72.6266 11.4768 66.5282 11.2953 63.8872 11.4287C65.4239 10.1481 69.9704 9.50773 72.0513 9.34766L68.1294 8.30664Z" fill="#9E13E0"/>
</svg>
